
<svg xmlns="http://www.w3.org/2000/svg"
     class="svg-snoweb svg-theme-dark"
     x="0"
     y="0"
     width="100%"
     height="100%"
     viewBox="0 0 100 100"
     preserveAspectRatio="xMidYMid meet"
>
<defs>
    <style>
        
            
            
            
        

        .svg-fill-primary {
            fill: #FFF;
        }

        .svg-fill-secondary {
            fill: #65CDAE;
        }

        .svg-fill-tertiary {
            fill: #37A987;
        }

        .svg-stroke-primary {
            stroke: #FFF;
        }

        .svg-stroke-secondary {
            stroke: #65CDAE;
        }

        .svg-stroke-tertiary {
            stroke: #37A987;
        }
    </style>
</defs>
    

<clipPath id="clip-path-202410-2907-0235-756251d4-bf36-49d8-b2a4-94e834265a78">
    <rect x="0" y="0" width="100" height="100" rx="15" ry="15"></rect>
</clipPath>

<g clip-path="url(#clip-path-202410-2907-0235-756251d4-bf36-49d8-b2a4-94e834265a78)">
    
    
    <rect 
            class="svg-fill-tertiary"
            x="0"
            y="0"
            width="100"
            height="100"
            rx="15"
            ry="15"
    >
    </rect>
    
    <g transform="translate(-22.50, -22.50) scale(1.45, 1.45)">
        <circle 
                class="svg-fill-secondary svg-builder-circle"
                cx="50"
                cy="50"
                r="50">
        </circle>
    </g>
</g>

    <g transform="translate(20.00, 20.00) scale(0.60, 0.60)">
        
    <path d="M41.9,34.1h-4.1c-2.485,0-4.5-2.015-4.5-4.5s2.015-4.5,4.5-4.5h4.1c2.485,0,4.5,2.015,4.5,4.5s-2.015,4.5-4.5,4.5Z"
      class="svg-fill-primary" isolation="isolate" opacity=".5"/>
<path d="M41.9,50.4h-4.1c-2.485,0-4.5-2.015-4.5-4.5s2.015-4.5,4.5-4.5h4.1c2.485,0,4.5,2.015,4.5,4.5s-2.015,4.5-4.5,4.5Z"
      class="svg-fill-primary" isolation="isolate" opacity=".5"/>
<path d="M62.2,34.1h-4.101c-2.485,0-4.5-2.015-4.5-4.5s2.015-4.5,4.5-4.5h4.101c2.485,0,4.5,2.015,4.5,4.5s-2.015,4.5-4.5,4.5Z"
      class="svg-fill-primary" isolation="isolate" opacity=".5"/>
<path d="M62.2,50.4h-4.101c-2.485,0-4.5-2.015-4.5-4.5s2.015-4.5,4.5-4.5h4.101c2.485,0,4.5,2.015,4.5,4.5s-2.015,4.5-4.5,4.5Z"
      class="svg-fill-primary" isolation="isolate" opacity=".5"/>
<path d="M86.6,82.1h-3.6V21.5c0-6.948-5.652-12.6-12.6-12.6H29.6c-6.948,0-12.6,5.652-12.6,12.6v60.6h-3.6c-2.485,0-4.5,2.015-4.5,4.5s2.015,4.5,4.5,4.5H86.6c2.485,0,4.5-2.015,4.5-4.5s-2.015-4.5-4.5-4.5ZM29.6,17.9h40.8c1.984,0,3.6,1.615,3.6,3.6v60.6h-11.4v-15.784l.002-.118c-.002-4.687-3.814-8.497-8.498-8.497h-8.204l-.214,.002c-4.663,.118-8.366,3.989-8.286,8.644v15.754h-11.4V21.5c0-1.985,1.615-3.6,3.6-3.6Zm24,64.2h-7.2v-15.399h7.2v15.399Z"
      class="svg-fill-primary"/>

    </g>
</svg>