
<svg xmlns="http://www.w3.org/2000/svg"
     class="svg-snoweb svg-theme-dark"
     x="0"
     y="0"
     width="100%"
     height="100%"
     viewBox="0 0 100 100"
     preserveAspectRatio="xMidYMid meet"
>
<defs>
    <style>
        
            
            
            
        

        .svg-fill-primary {
            fill: #FFF;
        }

        .svg-fill-secondary {
            fill: #65CDAE;
        }

        .svg-fill-tertiary {
            fill: #37A987;
        }

        .svg-stroke-primary {
            stroke: #FFF;
        }

        .svg-stroke-secondary {
            stroke: #65CDAE;
        }

        .svg-stroke-tertiary {
            stroke: #37A987;
        }
    </style>
</defs>
    

<clipPath id="clip-path-202410-2907-0359-2aea2c16-6943-4708-90d2-f77ca0a170e0">
    <rect x="0" y="0" width="100" height="100" rx="15" ry="15"></rect>
</clipPath>

<g clip-path="url(#clip-path-202410-2907-0359-2aea2c16-6943-4708-90d2-f77ca0a170e0)">
    
    
    <rect 
            class="svg-fill-tertiary"
            x="0"
            y="0"
            width="100"
            height="100"
            rx="15"
            ry="15"
    >
    </rect>
    
    <g transform="translate(-22.50, -22.50) scale(1.45, 1.45)">
        <circle 
                class="svg-fill-secondary svg-builder-circle"
                cx="50"
                cy="50"
                r="50">
        </circle>
    </g>
</g>

    <g transform="translate(20.00, 20.00) scale(0.60, 0.60)">
        
    <path d="M62.4,54h-24.8c-2.209,0-4-1.791-4-4s1.791-4,4-4h24.8c2.209,0,4,1.791,4,4s-1.791,4-4,4Z" class="svg-fill-primary"
      opacity=".5"/>
<path d="M62.4,70.6h-24.8c-2.209,0-4-1.791-4-4s1.791-4,4-4h24.8c2.209,0,4,1.791,4,4s-1.791,4-4,4Z" class="svg-fill-primary"
      opacity=".5"/>
<path d="M70.7,91.3H29.3c-6.782,0-12.3-5.518-12.3-12.3V21c0-6.782,5.518-12.3,12.3-12.3h23.101c2.161-.031,4.248,.823,5.799,2.342l22.395,22.495c1.583,1.514,2.457,3.625,2.406,5.818v39.646c0,6.782-5.518,12.3-12.3,12.3ZM52.461,16.7H29.3c-2.371,0-4.3,1.929-4.3,4.3v58c0,2.371,1.929,4.3,4.3,4.3h41.4c2.371,0,4.3-1.929,4.3-4.3V39.257l-.035-.035-22.399-22.5s-.053-.022-.104-.022Z"
      class="svg-fill-primary"/>

    </g>
</svg>