
<svg xmlns="http://www.w3.org/2000/svg"
     class="svg-snoweb svg-theme-dark"
     x="0"
     y="0"
     width="100%"
     height="100%"
     viewBox="0 0 100 100"
     preserveAspectRatio="xMidYMid meet"
>
<defs>
    <style>
        
            
            
            
        

        .svg-fill-primary {
            fill: #FFF;
        }

        .svg-fill-secondary {
            fill: #65CDAE;
        }

        .svg-fill-tertiary {
            fill: #37A987;
        }

        .svg-stroke-primary {
            stroke: #FFF;
        }

        .svg-stroke-secondary {
            stroke: #65CDAE;
        }

        .svg-stroke-tertiary {
            stroke: #37A987;
        }
    </style>
</defs>
    

<clipPath id="clip-path-202410-2907-2110-c8c63d37-198d-4568-a68d-d037de4256eb">
    <rect x="0" y="95" width="100" height="5"></rect>
</clipPath>
<g clip-path="url(#clip-path-202410-2907-2110-c8c63d37-198d-4568-a68d-d037de4256eb)">
    <rect 
            class="svg-fill-tertiary"
            x="0"
            y="95"
            width="100"
            height="5">
    </rect>
    <g transform="translate(0, 50)">
        <circle 
                class="svg-fill-secondary svg-builder-circle"
                cx="50"
                cy="50"
                r="50">
        </circle>
    </g>
</g>

    <g transform="translate(20.00, 20.00) scale(0.60, 0.60)">
        
    <path d="M84.03,66.67l-5.44-5.43c-.75-.79-1.17-1.82-1.19-2.84v-12.29c.02-10.67-6.18-20.32-15.68-24.82-.7-5.84-5.69-10.39-11.72-10.39s-11.02,4.55-11.72,10.39c-9.5,4.5-15.7,14.15-15.68,24.81v12.23c-.02,1.09-.44,2.12-1.13,2.84l-5.5,5.5c-1.14,1.15-1.48,2.87-.87,4.36,.62,1.5,2.08,2.47,3.7,2.47h15.5c.05,8.61,7.08,15.6,15.7,15.6s15.65-6.99,15.7-15.6h15.5c1.62,0,3.08-.97,3.7-2.47,.61-1.49,.27-3.21-.87-4.36Zm-34.03,14.43c-4.21,0-7.65-3.4-7.7-7.6h15.4c-.05,4.2-3.49,7.6-7.7,7.6Zm-21.75-15.6c1.48-2.04,2.31-4.49,2.35-7.1v-12.31c-.01-8.22,5.18-15.58,12.93-18.32,1.6-.56,2.67-2.07,2.67-3.77v-1.3c0-2.1,1.7-3.8,3.8-3.8s3.8,1.7,3.8,3.8v1.3c0,1.7,1.07,3.21,2.67,3.77,7.75,2.74,12.94,10.1,12.93,18.33v12.37c.04,2.53,.86,4.97,2.36,7.03H28.25Z"
      class="svg-fill-primary"/>
<path d="M71.76,65.5H28.25c1.48-2.04,2.31-4.49,2.35-7.1v-12.31c-.01-8.22,5.18-15.58,12.93-18.32,1.6-.56,2.67-2.07,2.67-3.77v-1.3c0-2.1,1.7-3.8,3.8-3.8s3.8,1.7,3.8,3.8v1.3c0,1.7,1.07,3.21,2.67,3.77,7.75,2.74,12.94,10.1,12.93,18.33v12.37c.04,2.53,.86,4.97,2.36,7.03Z"
      class="svg-fill-primary" opacity=".5"/>

    </g>
</svg>