
<svg xmlns="http://www.w3.org/2000/svg"
     class="svg-snoweb svg-theme-dark"
     x="0"
     y="0"
     width="100%"
     height="100%"
     viewBox="0 0 100 100"
     preserveAspectRatio="xMidYMid meet"
>
<defs>
    <style>
        
            
            
            
        

        .svg-fill-primary {
            fill: #FFF;
        }

        .svg-fill-secondary {
            fill: #65CDAE;
        }

        .svg-fill-tertiary {
            fill: #37A987;
        }

        .svg-stroke-primary {
            stroke: #FFF;
        }

        .svg-stroke-secondary {
            stroke: #65CDAE;
        }

        .svg-stroke-tertiary {
            stroke: #37A987;
        }
    </style>
</defs>
    

<clipPath id="clip-path-202410-2906-5940-4e69b6d7-8374-4b32-92e2-e7bab92d13c5">
    <rect x="0" y="0" width="100" height="100" rx="15" ry="15"></rect>
</clipPath>

<g clip-path="url(#clip-path-202410-2906-5940-4e69b6d7-8374-4b32-92e2-e7bab92d13c5)">
    
    
    <rect 
            class="svg-fill-tertiary"
            x="0"
            y="0"
            width="100"
            height="100"
            rx="15"
            ry="15"
    >
    </rect>
    
    <g transform="translate(-22.50, -22.50) scale(1.45, 1.45)">
        <circle 
                class="svg-fill-secondary svg-builder-circle"
                cx="50"
                cy="50"
                r="50">
        </circle>
    </g>
</g>

    <g transform="translate(20.00, 20.00) scale(0.60, 0.60)">
        
    <path d="M37.6,21H29.3A8.3,8.3,0,0,0,21,29.3V79a8.3,8.3,0,0,0,8.3,8.3H70.7A8.3,8.3,0,0,0,79,79V29.3A8.3,8.3,0,0,0,70.7,21H62.4M37.6,21a8.3,8.3,0,0,0,8.3,8.3h8.2A8.3,8.3,0,0,0,62.4,21M37.6,21a8.3,8.3,0,0,1,8.3-8.3h8.2A8.3,8.3,0,0,1,62.4,21"
      fill="none" class="svg-stroke-primary" stroke-linecap="round" stroke-linejoin="round" stroke-width="8"/>


    </g>
</svg>