
<svg xmlns="http://www.w3.org/2000/svg"
     class="svg-snoweb svg-theme-dark"
     x="0"
     y="0"
     width="100%"
     height="100%"
     viewBox="0 0 100 100"
     preserveAspectRatio="xMidYMid meet"
>
<defs>
    <style>
        
            
            
            
        

        .svg-fill-primary {
            fill: #FFF;
        }

        .svg-fill-secondary {
            fill: #65CDAE;
        }

        .svg-fill-tertiary {
            fill: #37A987;
        }

        .svg-stroke-primary {
            stroke: #FFF;
        }

        .svg-stroke-secondary {
            stroke: #65CDAE;
        }

        .svg-stroke-tertiary {
            stroke: #37A987;
        }
    </style>
</defs>
    

<clipPath id="clip-path-202410-2907-0345-fb1f9e10-f470-4f60-8b8e-cef35dc5e6e8">
    <rect x="0" y="0" width="100" height="100" rx="15" ry="15"></rect>
</clipPath>

<g clip-path="url(#clip-path-202410-2907-0345-fb1f9e10-f470-4f60-8b8e-cef35dc5e6e8)">
    
    
    <rect 
            class="svg-fill-tertiary"
            x="0"
            y="0"
            width="100"
            height="100"
            rx="15"
            ry="15"
    >
    </rect>
    
    <g transform="translate(-22.50, -22.50) scale(1.45, 1.45)">
        <circle 
                class="svg-fill-secondary svg-builder-circle"
                cx="50"
                cy="50"
                r="50">
        </circle>
    </g>
</g>

    <g transform="translate(20.00, 20.00) scale(0.60, 0.60)">
        
    <path d="M62,50h-8v-8c0-2.209-1.791-4-4-4s-4,1.791-4,4v8h-8c-2.209,0-4,1.791-4,4s1.791,4,4,4h8v8c0,2.209,1.791,4,4,4s4-1.791,4-4v-8h8c2.209,0,4-1.791,4-4s-1.791-4-4-4Z"
      class="svg-fill-primary" opacity=".5"/>
<path d="M70,89.9H30c-6.562,0-11.9-5.338-11.9-11.899V22.1c-.04-3.128,1.161-6.131,3.379-8.407,2.219-2.276,5.191-3.552,8.37-3.592h22.451c2.048,.004,4.015,.749,5.545,2.098,.065,.058,.129,.117,.19,.179l21.6,21.7c1.497,1.542,2.31,3.609,2.265,5.708v38.114c.083,6.51-5.188,11.915-11.748,11.999h-.151ZM30,18.1c-1.092,.013-2.066,.431-2.793,1.177s-1.121,1.73-1.107,2.772v55.952c0,2.15,1.75,3.899,3.9,3.899h39.989c.027,0,.098,0,.111,0,2.1-.027,3.827-1.799,3.8-3.949V39.7l-21.395-21.537c-.064-.041-.139-.063-.215-.063H30Z"
      class="svg-fill-primary"/>

    </g>
</svg>