
<svg xmlns="http://www.w3.org/2000/svg"
     class="svg-snoweb svg-theme-dark"
     x="0"
     y="0"
     width="100%"
     height="100%"
     viewBox="0 0 100 100"
     preserveAspectRatio="xMidYMid meet"
>
<defs>
    <style>
        
            
            
            
        

        .svg-fill-primary {
            fill: #FFF;
        }

        .svg-fill-secondary {
            fill: #65CDAE;
        }

        .svg-fill-tertiary {
            fill: #37A987;
        }

        .svg-stroke-primary {
            stroke: #FFF;
        }

        .svg-stroke-secondary {
            stroke: #65CDAE;
        }

        .svg-stroke-tertiary {
            stroke: #37A987;
        }
    </style>
</defs>
    <path d="M76.8,59.2,74,56.3V42a24,24,0,0,0-48,0V56.3l-2.8,2.9a3.8,3.8,0,0,0-.9,4.3A4,4,0,0,0,26,66H74a4,4,0,0,0,3.7-2.5A3.8,3.8,0,0,0,76.8,59.2Z"
          class="svg-fill-primary"/>
    <path d="M50,82A12,12,0,0,0,62,70H38A12,12,0,0,0,50,82Z" class="svg-fill-primary"/>
</svg>